<mxfile host="app.diagrams.net" agent="Mozilla/5.0 (X11; Linux x86_64; rv:128.0) Gecko/20100101 Firefox/128.0" version="26.0.16">
  <diagram name="Page-1" id="J-zT2bPsmtmsso8tWsNC">
    <mxGraphModel dx="826" dy="526" grid="1" gridSize="10" guides="1" tooltips="1" connect="1" arrows="1" fold="1" page="1" pageScale="1" pageWidth="850" pageHeight="1100" math="0" shadow="0">
      <root>
        <mxCell id="0" />
        <mxCell id="1" parent="0" />
        <mxCell id="e9ArVnGIWFNfoZ-oEhoM-1" value="" style="ellipse;whiteSpace=wrap;html=1;aspect=fixed;" vertex="1" parent="1">
          <mxGeometry x="380" y="520" width="80" height="80" as="geometry" />
        </mxCell>
        <mxCell id="e9ArVnGIWFNfoZ-oEhoM-2" value="" style="whiteSpace=wrap;html=1;aspect=fixed;fillColor=#fff2cc;strokeColor=#d6b656;" vertex="1" parent="1">
          <mxGeometry x="260" y="400" width="200" height="200" as="geometry" />
        </mxCell>
        <mxCell id="e9ArVnGIWFNfoZ-oEhoM-3" value="Actor" style="shape=umlActor;verticalLabelPosition=bottom;verticalAlign=top;html=1;outlineConnect=0;" vertex="1" parent="1">
          <mxGeometry x="520" y="520" width="30" height="60" as="geometry" />
        </mxCell>
        <mxCell id="e9ArVnGIWFNfoZ-oEhoM-4" value="" style="triangle;whiteSpace=wrap;html=1;rotation=-90;fillColor=#d5e8d4;strokeColor=#82b366;" vertex="1" parent="1">
          <mxGeometry x="640" y="465" width="80" height="70" as="geometry" />
        </mxCell>
        <mxCell id="e9ArVnGIWFNfoZ-oEhoM-5" value="" style="shape=trapezoid;perimeter=trapezoidPerimeter;whiteSpace=wrap;html=1;fixedSize=1;fillColor=#f8cecc;strokeColor=#b85450;" vertex="1" parent="1">
          <mxGeometry x="230" y="340" width="260" height="60" as="geometry" />
        </mxCell>
        <mxCell id="e9ArVnGIWFNfoZ-oEhoM-6" value="" style="triangle;whiteSpace=wrap;html=1;rotation=-90;fillColor=#d5e8d4;strokeColor=#82b366;" vertex="1" parent="1">
          <mxGeometry x="640" y="420" width="80" height="70" as="geometry" />
        </mxCell>
        <mxCell id="e9ArVnGIWFNfoZ-oEhoM-8" value="" style="edgeStyle=orthogonalEdgeStyle;rounded=0;orthogonalLoop=1;jettySize=auto;html=1;" edge="1" parent="1" source="e9ArVnGIWFNfoZ-oEhoM-7" target="e9ArVnGIWFNfoZ-oEhoM-6">
          <mxGeometry relative="1" as="geometry" />
        </mxCell>
        <mxCell id="e9ArVnGIWFNfoZ-oEhoM-7" value="" style="rounded=0;whiteSpace=wrap;html=1;fillColor=#ffe6cc;strokeColor=#d79b00;" vertex="1" parent="1">
          <mxGeometry x="670" y="540" width="20" height="60" as="geometry" />
        </mxCell>
        <mxCell id="e9ArVnGIWFNfoZ-oEhoM-9" value="" style="whiteSpace=wrap;html=1;aspect=fixed;" vertex="1" parent="1">
          <mxGeometry x="290" y="465" width="55" height="55" as="geometry" />
        </mxCell>
        <mxCell id="e9ArVnGIWFNfoZ-oEhoM-12" value="" style="whiteSpace=wrap;html=1;aspect=fixed;" vertex="1" parent="1">
          <mxGeometry x="370" y="530" width="70" height="70" as="geometry" />
        </mxCell>
      </root>
    </mxGraphModel>
  </diagram>
</mxfile>
